{"title":"Who Gets The Dog 2016 Movies HDRip XviD AAC New +Sample ~ ☻rDX☻","uid":15826199,"size":739600459,"categoryP":"video","categoryS":"movies","magnet":"?xt=urn:btih:def7136e3af83ba8bdaa72f678647026d2f72dd2&amp;dn=Who+Gets+The+Dog+2016+Movies+HDRip+XviD+AAC+New+%2BSample+%7E+%E2%98%BBrDX%E2%98%BB&amp;tr=udp%3A%2F%2Ftracker.leechers-paradise.org%3A6969&amp;tr=udp%3A%2F%2Fzer0day.ch%3A1337&amp;tr=udp%3A%2F%2Fopen.demonii.com%3A1337&amp;tr=udp%3A%2F%2Ftracker.coppersurfer.tk%3A6969&amp;tr=udp%3A%2F%2Fexodus.desync.com%3A6969","seeders":2,"leechers":3,"uploader":"basicssom","files":2,"time":1473847183,"description":"----------------------------------------------------------------\r\nWho Gets The Dog 2016 English Movies HDRip XviD AAC New Source with Sample ☻rDX☻\r\n\r\nSCREEN SHOTS &amp; POSTER:\r\n  \nhttp://postimage.co.nr/2016/9/credit/index.htm  \nhttp://postimage.co.nr/2016/9/credit/1.html  \nhttp://postimage.co.nr/2016/9/credit/2.html  \nhttp://postimage.co.nr/2016/9/credit/3.html  \nhttp://postimage.co.nr/2016/9/credit/4.html  \nhttp://postimage.co.nr/2016/9/credit/5.html  \nhttp://postimage.co.nr/2016/9/credit/6.html  \nhttp://postimage.co.nr/2016/9/credit/7.html  \nhttp://postimage.co.nr/2016/9/credit/8.html  \nhttp://postimage.co.nr/2016/9/credit/9.html  \nhttp://postimage.co.nr/2016/9/credit/10.html\r\n\r\nFormat                                   : Matroska\r\nFormat version                           : Version 4 / Version 2\r\nFile size                                : 698 MiB\r\nDuration                                 : 1 h 35 min\r\nOverall bit rate mode                    : Constant\r\nOverall bit rate                         : 1 018 kb/s\r\nMovie name                               : Who Gets The Dog 2016 English Movies HDRip XviD AAC New Source ☻rDX☻\r\n\r\nVideo\r\nID                                       : 2\r\nFormat                                   : AVC\r\nFormat/Info                              : Advanced Video Codec\r\nFormat profile                           :   \r\nFormat settings, CABAC                   : Yes\r\nFormat settings, ReFrames                : 2 frames\r\nFormat settings, GOP                     : M=1, N=12\r\nCodec ID                                 : V_MPEG4/ISO/AVC\r\nDuration                                 : 1 h 35 min\r\nBit rate mode                            : Constant\r\nBit rate                                 : 635 kb/s\r\nWidth                                    : 720 pixels\r\nHeight                                   : 304 pixels\r\nDisplay aspect ratio                     : 2.35:1\r\nFrame rate mode                          : Constant\r\nFrame rate                               : 23.976 FPS\r\nColor space                              : YUV\r\nChroma subsampling                       : 4:2:0\r\nBit depth                                : 8 bits\r\nScan type                                : Progressive\r\nBits/(Pixel*Frame)                       : 0.121\r\nStream size                              : 421 MiB (60%)\r\nTitle                                    : ☻rDX☻\r\nDefault                                  : Yes\r\nForced                                   : No\r\n\r\nAudio\r\nID                                       : 1\r\nFormat                                   : AC-3\r\nFormat/Info                              : Audio Coding 3\r\nMode extension                           : CM (complete main)\r\nFormat settings, Endianness              : Big\r\nCodec ID                                 : A_AC3\r\nDuration                                 : 1 h 35 min\r\nBit rate mode                            : Constant\r\nBit rate                                 : 384 kb/s\r\nChannel(s)                               : 6 channels\r\nChannel positions                        : Front: L C R, Side: L R, LFE\r\nSampling rate                            : 48.0 kHz\r\nFrame rate                               : 31.250 FPS (1536 spf)\r\nCompression mode                         : Lossy\r\nStream size                              : 263 MiB (38%)\r\nTitle                                    : ☻rDX☻\r\nDefault                                  : Yes\r\nForced                                   : No\r\n\r\nIMDB \nhttp://www.imdb.com/title/tt1949605/","torrent":{"xt":"urn:btih:def7136e3af83ba8bdaa72f678647026d2f72dd2","amp;dn":"Who+Gets+The+Dog+2016+Movies+HDRip+XviD+AAC+New+%2BSample+%7E+%E2%98%BBrDX%E2%98%BB","amp;tr":["udp%3A%2F%2Ftracker.leechers-paradise.org%3A6969","udp%3A%2F%2Fzer0day.ch%3A1337","udp%3A%2F%2Fopen.demonii.com%3A1337","udp%3A%2F%2Ftracker.coppersurfer.tk%3A6969","udp%3A%2F%2Fexodus.desync.com%3A6969"],"infoHash":"def7136e3af83ba8bdaa72f678647026d2f72dd2","infoHashBuffer":{"type":"Buffer","data":[222,247,19,110,58,248,59,168,189,170,114,246,120,100,112,38,210,247,45,210]},"announce":[],"urlList":[]}}